<?xml version="1.0" encoding="UTF-8"?>
<svg width="16px" height="21px" viewBox="0 0 16 21" version="1.1" xmlns="http://www.w3.org/2000/svg" xmlns:xlink="http://www.w3.org/1999/xlink">
    <!-- Generator: Sketch 54.1 (76490) - https://sketchapp.com -->
    <title>icon</title>
    <desc>Created with Sketch.</desc>
    <g id="Symbols" stroke="none" stroke-width="1" fill="none" fill-rule="evenodd">
        <g id="empty-bag" transform="translate(-1.000000, -11.000000)" fill="#FFFFFF">
            <g id="Group" transform="translate(1.000000, 0.000000)">
                <g id="m_global_nav_bag_empty">
                    <path d="M4.0096327,15.6097561 C4.1312384,12.4692966 5.40709796,11 8,11 C10.6118977,11 11.897732,12.4692966 12.0202916,15.6097561 L14.8335162,15.6097561 C15.4814856,15.6097561 15.9998612,16.1731707 15.9998612,16.8595122 L15.9998612,30.7502439 C16.00983,31.4365854 15.4814856,32 14.8434849,32 L1.16634502,32 C0.518375565,32 0,31.4365854 0,30.7502439 L0,16.8595122 C0,16.1731707 0.518375565,15.6097561 1.16634502,15.6097561 L4.0096327,15.6097561 Z M11.02,15.6097561 C10.9,12.6492683 9.72,12.0243902 8,12.0243902 C6.3,12.0243902 5.13,12.6492683 5.01,15.6097561 L11.02,15.6097561 Z M0.997203632,16.8595122 L0.997203632,30.7502439 C0.997203632,30.8731707 1.07691893,30.9756098 1.16659865,30.9756098 L14.8278086,30.9756098 C14.9174883,30.9756098 14.9972036,30.8731707 14.9972036,30.7502439 L14.9972036,16.8595122 C14.9972036,16.7365854 14.9174883,16.6341463 14.8278086,16.6341463 L1.16659865,16.6341463 C1.07691893,16.6341463 0.997203632,16.7365854 0.997203632,16.8595122 Z" id="icon"></path>
                </g>
            </g>
        </g>
    </g>
</svg>