<?xml version="1.0" encoding="UTF-8"?>
<svg width="16px" height="21px" viewBox="0 0 16 21" version="1.1" xmlns="http://www.w3.org/2000/svg" xmlns:xlink="http://www.w3.org/1999/xlink">
    <!-- Generator: Sketch 54.1 (76490) - https://sketchapp.com -->
    <title>Group 2</title>
    <desc>Created with Sketch.</desc>
    <g id="Symbols" stroke="none" stroke-width="1" fill="none" fill-rule="evenodd">
        <g id="bag" transform="translate(-1.000000, -11.000000)">
            <g id="Group" transform="translate(1.000000, 0.000000)">
                <g id="m_global_nav_bag_empty">
                    <g id="Group-2" transform="translate(0.000000, 11.000000)">
                        <path d="M4.0096327,4.6097561 C4.1312384,1.46929663 5.40709796,0 8,0 C10.6118977,0 11.897732,1.46929663 12.0202916,4.6097561 L14.8335162,4.6097561 C15.4814856,4.6097561 15.9998612,5.17317073 15.9998612,5.8595122 L15.9998612,19.7502439 C16.00983,20.4365854 15.4814856,21 14.8434849,21 L1.16634502,21 C0.518375565,21 0,20.4365854 0,19.7502439 L0,5.8595122 C0,5.17317073 0.518375565,4.6097561 1.16634502,4.6097561 L4.0096327,4.6097561 Z M11.02,4.6097561 C10.9,1.64926829 9.72,1.02439024 8,1.02439024 C6.3,1.02439024 5.13,1.64926829 5.01,4.6097561 L11.02,4.6097561 Z M0.997203632,5.8595122 L0.997203632,19.7502439 C0.997203632,19.8731707 1.07691893,19.9756098 1.16659865,19.9756098 L14.8278086,19.9756098 C14.9174883,19.9756098 14.9972036,19.8731707 14.9972036,19.7502439 L14.9972036,5.8595122 C14.9972036,5.73658537 14.9174883,5.63414634 14.8278086,5.63414634 L1.16659865,5.63414634 C1.07691893,5.63414634 0.997203632,5.73658537 0.997203632,5.8595122 Z" id="icon" fill="#FFFFFF"></path>
                        <circle id="Oval" fill="#66BBFF" fill-rule="nonzero" cx="8" cy="13" r="4"></circle>
                    </g>
                </g>
            </g>
        </g>
    </g>
</svg>