<svg id="Layer_1" xmlns="http://www.w3.org/2000/svg" viewBox="0 0 20 20"><style>.st0{fill-rule:evenodd;clip-rule:evenodd;fill:#fff}</style><title>FM</title><g id="ESD-pg02" transform="translate(-221 -565)"><g id="FM" transform="translate(220 563)"><g id="Group-11"><g id="folder-icon" transform="translate(1 2)"><path id="Fill-5" class="st0" d="M12.6 6.6l-.3-.3s-1.6-.5-1.8-.6c-.1-.1-.1-.2-.2-.5l-.2-.4c-.1 0-4.4-1.4-4.4-1.4-.2 0-.4.1-.4.1s-.1.5-.1.6-.2 0-.2 0L.4 2.7c-.2 0-.5.2-.4.4l3 11 12.4 5c.1 0-2.7-12.3-2.8-12.5"/><path id="Fill-7" class="st0" d="M5 3s.3-.4.3-.5c.2-.3.3-.2.5-.2s4.5 1.3 4.6 1.4c.1 0 .4.1.5.5.1.3.3.5.4.7.3.1 1.7.5 1.7.5s.4.1.5.4 2.7 12.3 2.7 12.3l3.9-13c.1-.3 0-.5-.3-.7-.1-.1-.3-.1-.4-.1-.3.1-1.4-.3-1.4-.3s-.4 0-.4-.3v-.2s0-.4-.4-.5-3.2-.8-3.3-.8-.5-.1-.7.1c-.1.1-.2.5-.4.5-.4 0-7.2-1.7-7.3-1.8-.2 0-.4 0-.5.3 0 .1-.3.7-.5 1.8L5 3z"/></g></g></g></g></svg>