<?xml version="1.0" encoding="utf-8"?>
<svg version="1.1" id="NotificationIcon" xmlns="http://www.w3.org/2000/svg" xmlns:xlink="http://www.w3.org/1999/xlink" x="0px" y="0px"
	 viewBox="0 0 15 18" style="enable-background:new 0 0 15 18;" xml:space="preserve">
<style type="text/css">
	.st0{fill:none;stroke:#FFFFFF;stroke-miterlimit:10;}
	.st1{fill:none;stroke:#FFFFFF;stroke-width:0.8;stroke-miterlimit:10;}
</style>
<path class="st0" d="M5.5,15.6c0,1,0.9,1.9,2,1.9s2-0.8,2-1.9"/>
<path class="st1" d="M8.8,1.9c0-0.7-0.6-1.3-1.3-1.3S6.2,1.2,6.2,1.9c0,0.5,0.3,0.9,0.7,1.1h0.6h0.6C8.5,2.7,8.8,2.3,8.8,1.9z"/>
<path class="st0" d="M6.6,3C4.6,3,3,4.9,3,7.2c0,0-0.2,2.5-1,4.2c-0.4,1-1.2,1.7-1.4,2.2c-0.2,0.6,0,2,0.2,2h4.7h3.9h4.7
	c0.2,0,0.5-1.4,0.2-2c-0.2-0.6-1-1.2-1.4-2.2c-0.7-1.7-1-4.2-1-4.2C12,4.9,10.4,3,8.4,3H6.6z"/>
<path class="st0" d="M7.6,3"/>
</svg>
