<?xml version="1.0" encoding="UTF-8"?>
<svg width="17px" height="17px" viewBox="0 0 17 17" version="1.1" xmlns="http://www.w3.org/2000/svg" xmlns:xlink="http://www.w3.org/1999/xlink">
    <!-- Generator: Sketch 54.1 (76490) - https://sketchapp.com -->
    <title>Group 2</title>
    <desc>Created with Sketch.</desc>
    <g id="Symbols" stroke="none" stroke-width="1" fill="none" fill-rule="evenodd">
        <g id="Person-Blue" transform="translate(0.000000, -15.000000)">
            <g id="Group-2" transform="translate(0.000000, 15.000000)">
                <g id="Group">
                    <polygon id="bounds" points="0 0 17 0 17 17 0 17"></polygon>
                    <path d="M12.42,14.13 C11.98,13.97 11.53,13.86 11.08,13.77 C10.45,13.65 10.24,13.35 10.2,12.7 C10.2,12.6 10.07,11.81 10.17,11.76 C10.59,11.55 10.65,10.89 10.69,10.49 C10.72,10.19 10.87,10.06 11.01,9.82 C11.16,9.55 11.3,9.18 11.38,8.89 C11.44,8.68 11.55,8.32 11.51,8.1 C11.47,7.9 11.32,7.71 11.32,7.49 C11.32,7.21 11.36,6.99 11.39,6.71 C11.44,6.28 11.43,5.84 11.34,5.42 C11.2954662,5.1918812 11.2071739,4.97454628 11.08,4.78 C10.92,4.52 10.69,4.31 10.44,4.16 C9.9,3.81 9.17,3.58 8.5,3.59 C7.83,3.58 7.1,3.81 6.56,4.14 C6.31,4.3 6.08,4.51 5.92,4.77 C5.81,4.95 5.71,5.19 5.67,5.41 C5.58,5.84 5.57,6.27 5.62,6.7 C5.65,6.98 5.69,7.2 5.69,7.48 C5.69,7.7 5.54,7.88 5.5,8.09 C5.46,8.32 5.56,8.67 5.62,8.88 C5.7,9.17 5.85,9.55 6,9.81 C6.14,10.05 6.29,10.19 6.32,10.48 C6.36,10.88 6.43,11.54 6.84,11.75 C6.94,11.8 6.81,12.59 6.81,12.69 C6.77,13.34 6.55,13.64 5.93,13.76 C5.47,13.85 5.02,13.97 4.59,14.12 C4.49,14.16 3.77,14.55 3.77,14.64 C3.77,14.64 5.45,15.92 8.51,15.93 C11.58,15.93 13.4,14.59 13.4,14.59 C13.29,14.55 12.52,14.17 12.42,14.13 L12.42,14.13 Z" id="icon" fill="#66BBFF"></path>
                </g>
                <path d="M8.5,0.53 C12.9,0.53 16.47,4.1 16.47,8.5 C16.47,12.9 12.9,16.47 8.5,16.47 C4.1,16.47 0.53,12.9 0.53,8.5 C0.53,4.1 4.1,0.53 8.5,0.53 Z M8.5,1.53 C4.66,1.53 1.53,4.66 1.53,8.5 C1.53,12.34 4.66,15.47 8.5,15.47 C12.34,15.47 15.47,12.34 15.47,8.5 C15.47,4.66 12.34,1.53 8.5,1.53 Z" id="Shape-2" fill="#FFFFFF"></path>
            </g>
        </g>
    </g>
</svg>