<?xml version="1.0" encoding="UTF-8"?>
<svg width="17px" height="17px" viewBox="0 0 17 17" version="1.1" xmlns="http://www.w3.org/2000/svg" xmlns:xlink="http://www.w3.org/1999/xlink">
    <!-- Generator: Sketch 54.1 (76490) - https://sketchapp.com -->
    <title>Group</title>
    <desc>Created with Sketch.</desc>
    <g id="Symbols" stroke="none" stroke-width="1" fill="none" fill-rule="evenodd">
        <g id="Person" transform="translate(0.000000, -15.000000)">
            <g id="Group" transform="translate(0.000000, 15.000000)">
                <polygon id="bounds" points="0 0 17 0 17 17 0 17"></polygon>
                <path d="M8.5,0.53 C12.9,0.53 16.47,4.1 16.47,8.5 C16.47,12.9 12.9,16.47 8.5,16.47 C4.1,16.47 0.53,12.9 0.53,8.5 C0.53,4.1 4.1,0.53 8.5,0.53 Z M12.5316356,14.1808085 C14.3081009,12.915656 15.47,10.8396089 15.47,8.5 C15.47,4.66 12.34,1.53 8.5,1.53 C4.66,1.53 1.53,4.66 1.53,8.5 C1.53,10.8392259 2.69151869,12.9149762 4.46749204,14.1801871 C4.52579437,14.1497082 4.57013292,14.1279468 4.59,14.12 C5.02,13.97 5.47,13.85 5.93,13.76 C6.55,13.64 6.77,13.34 6.81,12.69 C6.81,12.59 6.94,11.8 6.84,11.75 C6.43,11.54 6.36,10.88 6.32,10.48 C6.29,10.19 6.14,10.05 6,9.81 C5.85,9.55 5.7,9.17 5.62,8.88 C5.56,8.67 5.46,8.32 5.5,8.09 C5.54,7.88 5.69,7.7 5.69,7.48 C5.69,7.2 5.65,6.98 5.62,6.7 C5.57,6.27 5.58,5.84 5.67,5.41 C5.71,5.19 5.81,4.95 5.92,4.77 C6.08,4.51 6.31,4.3 6.56,4.14 C7.1,3.81 7.83,3.58 8.5,3.59 C9.17,3.58 9.9,3.81 10.44,4.16 C10.69,4.31 10.92,4.52 11.08,4.78 C11.2071739,4.97454628 11.2954662,5.1918812 11.34,5.42 C11.43,5.84 11.44,6.28 11.39,6.71 C11.36,6.99 11.32,7.21 11.32,7.49 C11.32,7.71 11.47,7.9 11.51,8.1 C11.55,8.32 11.44,8.68 11.38,8.89 C11.3,9.18 11.16,9.55 11.01,9.82 C10.87,10.06 10.72,10.19 10.69,10.49 C10.65,10.89 10.59,11.55 10.17,11.76 C10.07,11.81 10.2,12.6 10.2,12.7 C10.24,13.35 10.45,13.65 11.08,13.77 C11.53,13.86 11.98,13.97 12.42,14.13 C12.43803,14.137212 12.4778403,14.1554767 12.5316356,14.1808085 Z" id="icon" fill="#FFFFFF"></path>
            </g>
        </g>
    </g>
</svg>