<svg width="20px" height="20px" xmlns="http://www.w3.org/2000/svg" viewBox="0 0 14 14"><defs><style>.cls-1{fill:#fb2443;}</style></defs><title>status-error</title><g id="Layer_2" data-name="Layer 2"><g id="ic-status-error-icon"><path id="Outline" class="cls-1" d="M7,13a6,6,0,1,1,6-6,6,6,0,0,1-6,6M7,0A7,7,0,0,0,0,7a7,7,0,0,0,7,7,7,7,0,0,0,7-7A7,7,0,0,0,7,0"/><g id="Exclamation"><path id="Dot" class="cls-1" d="M7,9.4a.77.77,0,0,0-.8.7v.1a.68.68,0,0,0,.7.7H7a.77.77,0,0,0,.8-.7v-.1A.77.77,0,0,0,7,9.4"/><rect id="Top" class="cls-1" x="6.2" y="3.1" width="1.5" height="5.4"/></g></g></g></svg>