<?xml version="1.0" encoding="UTF-8"?>
<svg viewBox="0 0 15 15" version="1.1" xmlns="http://www.w3.org/2000/svg" xmlns:xlink="http://www.w3.org/1999/xlink">
    <!-- Generator: Sketch 51.1 (57501) - http://www.bohemiancoding.com/sketch -->
    <title>icon</title>
    <desc>Created with Sketch.</desc>
    <defs></defs>
    <g id="Symbols" stroke="none" stroke-width="1" fill="none" fill-rule="evenodd">
        <g id="Forms/Fields/Search" transform="translate(-12.000000, -9.000000)" fill="#BBBBBB">
            <path d="M22.7754749,18.9588051 L27,23.185022 L26.1863491,24 L21.9624491,19.7734688 C20.908517,20.6480139 19.5564651,21.1746095 18.0848679,21.1746095 C14.7321857,21.1746095 12,18.4413296 12,15.0873048 C12,11.7332799 14.7321857,9 18.0848679,9 C21.43755,9 24.1697358,11.7332799 24.1697358,15.0873048 C24.1697358,16.5559408 23.6458869,17.9055598 22.7754749,18.9588051 Z M18.0848679,10.1613937 C15.3626902,10.1613937 13.1609287,12.3740489 13.1609287,15.0873048 C13.1609287,17.8005607 15.3726982,20.0132159 18.0848679,20.0132159 C20.7970376,20.0132159 23.008807,17.8005607 23.008807,15.0873048 C23.008807,12.3740489 20.8070456,10.1613937 18.0848679,10.1613937 Z" id="icon"></path>
        </g>
    </g>
</svg>