<?xml version="1.0" encoding="UTF-8"?>
<svg width="20px" height="20px" viewBox="0 0 20 20" version="1.1" xmlns="http://www.w3.org/2000/svg" xmlns:xlink="http://www.w3.org/1999/xlink">
    <g id="Status-Rejected" stroke="none" stroke-width="1" fill="none" fill-rule="evenodd">
        <g id="icon-Rejected" transform="translate(-127.000000, -289.000000)" fill="#EE0000">
            <g id="Page-Content">
                <g id="Server-Section">
                    <g id="Server" transform="translate(1.000000, 136.000000)">
                        <g id="Notice" transform="translate(114.000000, 141.000000)">
                            <path d="M22.7091988,26.7076808 C22.5222552,26.9030574 22.2863501,27 22.004451,27 C21.7225519,27 21.4851632,26.9045488 21.2908012,26.7121551 C21.0964392,26.5212528 21,26.2826249 21,26.0007457 C21,25.7173751 21.0964392,25.4802386 21.2908012,25.2878449 C21.4851632,25.0954512 21.7225519,25 22.004451,25 C22.2863501,25 22.5237389,25.0954512 22.7136499,25.2878449 C22.9050445,25.4802386 23,25.7173751 23,26.0007457 C23,26.2826249 22.9035608,26.5197614 22.7091988,26.7076808 L22.7091988,26.7076808 Z M21.3461841,17.0124926 L22.6239182,17.0124926 L23,17 L22.7718332,24 L21.1982691,24 L21,17 L21.3461841,17.0124926 Z M22,12 C16.4771429,12 12,16.4771429 12,22 C12,27.5228571 16.4771429,32 22,32 C27.5228571,32 32,27.5228571 32,22 C32,16.4771429 27.5228571,12 22,12 L22,12 Z" id="icon"></path>
                        </g>
                    </g>
                </g>
            </g>
        </g>
    </g>
</svg>