<?xml version="1.0" encoding="utf-8"?>
<!-- Generator: Adobe Illustrator 23.0.2, SVG Export Plug-In . SVG Version: 6.00 Build 0)  -->
<svg version="1.1" id="ic-tooltip" xmlns="http://www.w3.org/2000/svg" xmlns:xlink="http://www.w3.org/1999/xlink" x="0px" y="0px"
	 viewBox="0 0 16 16" style="enable-background:new 0 0 16 16;" xml:space="preserve">
<style type="text/css">
	.st0{fill:#888888;}
	.st1{fill:none;}
	.st2{enable-background:new    ;}
	.st3{fill:#FFFFFF;}
</style>
<path class="st0" d="M8,14.9 M8,0C3.5,0,0,3.5,0,8s3.5,8,8,8s8-3.5,8-8S12.5,0,8,0"/>
<title>ic-tooltip</title>
<rect x="5.1" y="3.7" class="st1" width="5.7" height="8.4"/>
<g class="st2">
	<path class="st3" d="M8,3.9c1.4,0,2.6,0.7,2.6,2.1c0,1-0.6,1.5-1.2,1.9C8.8,8.4,8.5,8.6,8.5,9.3v0.3H7.1V9.3c0-1,0.4-1.5,1-1.9
		C8.7,6.9,9,6.7,9,6.1c0-0.7-0.5-1-1.1-1c-0.7,0-1.1,0.5-1.1,1.2H5.4C5.3,4.6,6.7,3.9,8,3.9z M7.8,10.5c0.5,0,0.9,0.3,0.9,0.8
		s-0.4,0.8-0.9,0.8s-0.9-0.3-0.9-0.8S7.3,10.5,7.8,10.5z"/>
</g>
</svg>
